<svg width="40" height="40" viewBox="0 0 40 40" fill="none" xmlns="http://www.w3.org/2000/svg">
<path d="M24.063 32.4955L21.2862 37.2516C21.153 37.4799 20.9645 37.6688 20.739 37.7999C20.5136 37.9311 20.259 38 20 38C19.741 38 19.4864 37.9311 19.261 37.7999C19.0355 37.6688 18.847 37.4799 18.7138 37.2516L15.937 32.4955C15.8037 32.2672 15.6152 32.0783 15.3898 31.9472C15.1644 31.816 14.9097 31.7471 14.6507 31.7471H3.5C3.10218 31.7471 2.72064 31.5847 2.43934 31.2956C2.15804 31.0065 2 30.6144 2 30.2056V5.54151C2 5.13268 2.15804 4.74059 2.43934 4.4515C2.72064 4.16241 3.10218 4 3.5 4H36.5C36.8978 4 37.2794 4.16241 37.5607 4.4515C37.842 4.74059 38 5.13268 38 5.54151V30.2057C38 30.4081 37.9612 30.6086 37.8858 30.7956C37.8104 30.9826 37.6999 31.1526 37.5607 31.2957C37.4214 31.4388 37.256 31.5524 37.074 31.6299C36.892 31.7073 36.697 31.7472 36.5 31.7472L25.3493 31.7471C25.0903 31.7471 24.8356 31.816 24.6102 31.9472C24.3848 32.0783 24.1963 32.2673 24.063 32.4955Z" stroke="#9C9D9E" stroke-width="3" stroke-linecap="round" stroke-linejoin="round"/>
<path d="M11 20C12.1046 20 13 19.1046 13 18C13 16.8954 12.1046 16 11 16C9.89543 16 9 16.8954 9 18C9 19.1046 9.89543 20 11 20Z" fill="#9C9D9E"/>
<path d="M20 20C21.1046 20 22 19.1046 22 18C22 16.8954 21.1046 16 20 16C18.8954 16 18 16.8954 18 18C18 19.1046 18.8954 20 20 20Z" fill="#9C9D9E"/>
<path d="M29 20C30.1046 20 31 19.1046 31 18C31 16.8954 30.1046 16 29 16C27.8954 16 27 16.8954 27 18C27 19.1046 27.8954 20 29 20Z" fill="#9C9D9E"/>
</svg>
