<svg width="40" height="40" viewBox="0 0 40 40" fill="none" xmlns="http://www.w3.org/2000/svg">
<path d="M12.6521 8.28955H36.9999" stroke="#9C9D9E" stroke-width="3" stroke-linecap="round" stroke-linejoin="round"/>
<path d="M12.6533 20.5H37" stroke="#9C9D9E" stroke-width="3" stroke-linecap="round" stroke-linejoin="round"/>
<path d="M12.6533 32.7104H37" stroke="#9C9D9E" stroke-width="3" stroke-linecap="round" stroke-linejoin="round"/>
<path d="M4.28261 10.5789C5.54326 10.5789 6.56522 9.55392 6.56522 8.28947C6.56522 7.02503 5.54326 6 4.28261 6C3.02196 6 2 7.02503 2 8.28947C2 9.55392 3.02196 10.5789 4.28261 10.5789Z" fill="#9C9D9E"/>
<path d="M4.28261 22.7894C5.54326 22.7894 6.56522 21.7644 6.56522 20.4999C6.56522 19.2355 5.54326 18.2104 4.28261 18.2104C3.02196 18.2104 2 19.2355 2 20.4999C2 21.7644 3.02196 22.7894 4.28261 22.7894Z" fill="#9C9D9E"/>
<path d="M4.28261 35.0001C5.54326 35.0001 6.56522 33.9751 6.56522 32.7106C6.56522 31.4462 5.54326 30.4211 4.28261 30.4211C3.02196 30.4211 2 31.4462 2 32.7106C2 33.9751 3.02196 35.0001 4.28261 35.0001Z" fill="#9C9D9E"/>
</svg>
