<svg width="31" height="35" viewBox="0 0 31 35" fill="none" xmlns="http://www.w3.org/2000/svg">
<path d="M15.5 17.5C20.1362 17.5 23.8947 13.8064 23.8947 9.25C23.8947 4.69365 20.1362 1 15.5 1C10.8637 1 7.10522 4.69365 7.10522 9.25C7.10522 13.8064 10.8637 17.5 15.5 17.5Z" fill="#525252" stroke="#525252" stroke-width="2" stroke-miterlimit="10"/>
<path d="M1 33.9997C1 28.4046 4.58393 24.8035 7.12916 23.276C9.67438 21.7485 12.5614 22.0184 15.5001 22.0184C18.4388 22.0184 21.3258 21.7486 23.871 23.2762C26.4161 24.8037 29.9999 28.4048 30 34" fill="#525252"/>
<path d="M1 33.9997C1 28.4046 4.58393 24.8035 7.12916 23.276C9.67438 21.7485 12.5614 22.0184 15.5001 22.0184C18.4388 22.0184 21.3258 21.7486 23.871 23.2762C26.4161 24.8037 29.9999 28.4048 30 34L1 33.9997Z" stroke="#525252" stroke-width="2" stroke-linecap="round" stroke-linejoin="round"/>
</svg>
