<svg width="28" height="28" viewBox="0 0 28 28" fill="none" xmlns="http://www.w3.org/2000/svg">
<path fill-rule="evenodd" clip-rule="evenodd" d="M18.2511 17.2511C20.9786 14.5235 20.9786 10.1013 18.2511 7.37376C15.5235 4.64622 11.1013 4.64622 8.37376 7.37376C5.64622 10.1013 5.64622 14.5235 8.37376 17.2511C11.1013 19.9786 15.5235 19.9786 18.2511 17.2511ZM19.8973 5.72754C23.2558 9.08605 23.5127 14.3716 20.6681 18.025C20.6859 18.0407 20.7034 18.0571 20.7204 18.0742L25.6591 23.0128C26.1136 23.4674 26.1136 24.2045 25.6591 24.6591C25.2045 25.1136 24.4674 25.1136 24.0128 24.6591L19.0742 19.7204C19.0571 19.7034 19.0407 19.6859 19.025 19.6681C15.3716 22.5127 10.086 22.2558 6.72754 18.8973C3.09082 15.2606 3.09082 9.36427 6.72754 5.72754C10.3643 2.09082 16.2606 2.09082 19.8973 5.72754Z" fill="#525252"/>
</svg>
